<?xml version="1.0" standalone="no"?>
<!DOCTYPE svg PUBLIC "-//W3C//DTD SVG 20010904//EN"
 "http://www.w3.org/TR/2001/REC-SVG-20010904/DTD/svg10.dtd">
<svg version="1.0" xmlns="http://www.w3.org/2000/svg"
 width="1280.000000pt" height="1280.000000pt" viewBox="0 0 1280.000000 1280.000000"
 preserveAspectRatio="xMidYMid meet">

<g transform="translate(0.000000,1280.000000) scale(0.100000,-0.100000)"
fill="#000000" stroke="none">
<path d="M0 6400 l0 -6400 6400 0 6400 0 0 6400 0 6400 -6400 0 -6400 0 0
-6400z m9830 5841 c49 -29 130 -129 182 -226 71 -131 191 -416 218 -515 6 -25
15 -52 19 -60 9 -18 65 -197 80 -255 48 -187 66 -263 81 -345 10 -52 23 -115
28 -140 20 -86 35 -294 28 -398 -11 -163 -34 -261 -94 -394 -65 -143 -149
-252 -259 -334 -115 -87 -210 -121 -358 -131 -185 -12 -403 104 -539 287 -69
92 -139 246 -171 375 -24 97 -28 129 -28 265 1 85 5 182 11 215 6 33 17 103
26 155 21 127 89 415 131 551 50 160 68 217 80 249 70 187 91 236 172 408 41
88 137 225 188 270 77 67 122 73 205 23z m-5435 -1891 c116 -4 264 -13 330
-19 124 -11 509 -68 535 -78 8 -4 51 -14 95 -24 126 -28 248 -58 270 -68 11
-5 43 -15 70 -22 97 -24 426 -144 521 -190 34 -16 65 -29 68 -29 7 0 304 -147
361 -179 22 -13 65 -37 95 -54 160 -90 448 -286 601 -407 102 -81 107 -85 221
-184 43 -37 82 -64 88 -61 5 3 10 23 10 42 0 20 5 62 10 92 6 31 17 110 24
176 16 141 53 351 66 380 4 11 11 37 15 57 6 37 57 206 74 243 59 133 124 230
171 255 16 8 23 1 50 -53 48 -92 207 -327 262 -387 8 -8 62 -71 120 -140 321
-380 699 -729 993 -916 167 -107 273 -146 387 -146 44 1 85 5 91 10 7 5 26 12
42 16 73 18 236 130 370 257 47 44 175 152 226 192 14 10 41 17 67 17 58 0
104 -36 175 -138 55 -78 190 -342 203 -397 4 -16 13 -41 21 -55 32 -59 145
-405 208 -640 13 -47 26 -92 29 -100 3 -8 13 -44 21 -80 8 -36 26 -112 41
-170 32 -132 59 -254 85 -395 11 -60 25 -126 30 -145 11 -38 39 -202 68 -401
10 -69 22 -136 26 -147 7 -24 34 -236 65 -512 11 -96 24 -206 29 -245 6 -38
15 -144 21 -235 6 -91 15 -196 20 -235 20 -153 44 -1011 28 -1021 -5 -3 -21 3
-36 13 -15 10 -31 20 -37 23 -15 7 -367 216 -505 300 -8 5 -73 44 -145 86
-219 129 -250 149 -253 157 -2 4 -8 7 -14 7 -5 0 -89 48 -186 107 -98 58 -190
113 -205 121 -34 17 -40 32 -62 147 -9 49 -26 118 -37 154 -28 91 -116 337
-127 358 -6 10 -39 79 -75 153 -103 214 -186 352 -324 545 -70 98 -222 293
-267 341 -5 6 -38 42 -71 80 -58 64 -246 254 -305 306 -79 71 -163 143 -187
162 -15 11 -29 23 -32 26 -3 3 -32 25 -65 50 -33 25 -62 48 -65 51 -9 10 -202
144 -280 193 -41 27 -87 57 -102 67 -15 11 -29 19 -32 19 -3 0 -43 22 -88 49
-190 111 -475 242 -678 311 -52 17 -102 35 -110 39 -8 4 -78 24 -155 45 -77
20 -153 40 -170 46 -16 5 -77 16 -135 25 -58 9 -121 20 -140 25 -91 24 -615
51 -747 38 -43 -4 -148 -15 -233 -23 -157 -15 -350 -47 -495 -83 -127 -31
-238 -62 -260 -72 -26 -12 -160 -59 -205 -72 -19 -6 -39 -14 -45 -18 -5 -4
-41 -20 -80 -35 -114 -45 -331 -158 -470 -246 -341 -215 -590 -441 -790 -714
-70 -97 -184 -286 -205 -339 -5 -15 -22 -53 -36 -84 -38 -83 -40 -90 -67 -177
-57 -181 -102 -381 -124 -555 -19 -147 -21 -491 -4 -640 19 -167 97 -508 122
-535 5 -5 9 -15 9 -22 0 -38 194 -462 221 -483 3 -3 14 -20 23 -38 26 -51 139
-213 234 -336 84 -109 428 -463 507 -521 22 -16 47 -37 55 -45 8 -8 33 -29 55
-46 100 -76 212 -160 227 -169 8 -5 49 -32 89 -59 206 -137 498 -299 704 -390
61 -26 133 -59 162 -72 65 -30 252 -101 318 -121 28 -8 57 -17 65 -20 8 -4 44
-14 80 -25 36 -10 72 -20 80 -22 116 -34 223 -61 410 -100 41 -9 104 -23 140
-31 36 -8 109 -21 164 -30 54 -8 102 -17 106 -20 3 -2 67 -11 141 -20 148 -18
167 -21 189 -29 8 -3 98 -12 200 -21 102 -9 205 -18 230 -21 308 -39 1434 -37
1940 2 474 36 819 68 950 88 14 3 86 11 160 20 74 9 173 22 220 31 47 8 130
21 185 30 204 31 544 96 605 114 78 24 73 40 67 -231 -7 -300 -19 -365 -98
-535 -55 -119 -118 -210 -207 -300 -136 -137 -291 -227 -493 -286 l-74 -21
-4383 -3 c-2670 -2 -4403 0 -4435 6 -99 18 -182 39 -212 55 -16 9 -35 16 -41
16 -29 0 -219 117 -270 166 -7 5 -25 21 -40 35 -42 35 -139 152 -177 212 -18
29 -47 86 -66 127 -18 41 -37 84 -42 95 -13 27 -38 153 -50 244 -6 45 -8 1534
-7 3810 3 3589 4 3739 21 3806 10 39 25 90 33 115 8 25 16 50 17 55 4 16 79
170 86 175 3 3 23 30 43 60 108 159 284 296 480 374 62 25 212 61 288 69 68 7
2108 5 2315 -3z"/>
</g>
</svg>
